<svg xmlns="http://www.w3.org/2000/svg" viewBox="0 0 120 110" width="120" height="110">
  <ellipse cx="60" cy="100" rx="50" ry="8" fill="#c0c0c0"/>
  <rect x="20" y="55" width="80" height="45" rx="4" fill="#F4EBD4" stroke="#e8d9b8" stroke-width="1"/>
  <rect x="28" y="35" width="64" height="28" rx="4" fill="#F4EBD4" stroke="#e8d9b8" stroke-width="1"/>
  <ellipse cx="60" cy="35" rx="32" ry="6" fill="#fff8e7"/>
  <circle cx="35" cy="70" r="4" fill="#e11d48"/>
  <circle cx="50" cy="78" r="3" fill="#FFF100"/>
  <circle cx="70" cy="68" r="4" fill="#409880"/>
  <circle cx="85" cy="75" r="3" fill="#E1ED3C"/>
  <circle cx="45" cy="48" r="3" fill="#fb7185"/>
  <circle cx="65" cy="50" r="3" fill="#38bdf8"/>
  <rect x="38" y="18" width="3" height="18" fill="#60a5fa"/>
  <rect x="58" y="14" width="3" height="22" fill="#4ade80"/>
  <rect x="78" y="18" width="3" height="18" fill="#fbbf24"/>
  <ellipse cx="39.5" cy="16" rx="3" ry="4" fill="#f97316"/>
  <ellipse cx="59.5" cy="12" rx="3" ry="4" fill="#ef4444"/>
  <ellipse cx="79.5" cy="16" rx="3" ry="4" fill="#a78bfa"/>
</svg>
