<svg xmlns="http://www.w3.org/2000/svg" viewBox="0 0 100 110" width="100" height="110">
  <line x1="50" y1="0" x2="50" y2="12" stroke="#888" stroke-width="2"/>
  <circle cx="50" cy="55" r="42" fill="#d4d4d8" stroke="#a1a1aa" stroke-width="2"/>
  <g opacity="0.9">
    <rect x="20" y="25" width="12" height="12" fill="#e4e4e7" stroke="#a1a1aa" stroke-width="0.5"/>
    <rect x="32" y="25" width="12" height="12" fill="#fafafa" stroke="#a1a1aa" stroke-width="0.5"/>
    <rect x="44" y="25" width="12" height="12" fill="#c0c0c0" stroke="#a1a1aa" stroke-width="0.5"/>
    <rect x="56" y="25" width="12" height="12" fill="#e4e4e7" stroke="#a1a1aa" stroke-width="0.5"/>
    <rect x="68" y="25" width="12" height="12" fill="#f4f4f5" stroke="#a1a1aa" stroke-width="0.5"/>
    <rect x="20" y="37" width="12" height="12" fill="#fafafa" stroke="#a1a1aa" stroke-width="0.5"/>
    <rect x="32" y="37" width="12" height="12" fill="#60a5fa" stroke="#a1a1aa" stroke-width="0.5"/>
    <rect x="44" y="37" width="12" height="12" fill="#e4e4e7" stroke="#a1a1aa" stroke-width="0.5"/>
    <rect x="56" y="37" width="12" height="12" fill="#c0c0c0" stroke="#a1a1aa" stroke-width="0.5"/>
    <rect x="68" y="37" width="12" height="12" fill="#93c5fd" stroke="#a1a1aa" stroke-width="0.5"/>
    <rect x="20" y="49" width="12" height="12" fill="#c0c0c0" stroke="#a1a1aa" stroke-width="0.5"/>
    <rect x="32" y="49" width="12" height="12" fill="#e4e4e7" stroke="#a1a1aa" stroke-width="0.5"/>
    <rect x="44" y="49" width="12" height="12" fill="#fafafa" stroke="#a1a1aa" stroke-width="0.5"/>
    <rect x="56" y="49" width="12" height="12" fill="#38bdf8" stroke="#a1a1aa" stroke-width="0.5"/>
    <rect x="68" y="49" width="12" height="12" fill="#e4e4e7" stroke="#a1a1aa" stroke-width="0.5"/>
    <rect x="26" y="61" width="12" height="12" fill="#f4f4f5" stroke="#a1a1aa" stroke-width="0.5"/>
    <rect x="38" y="61" width="12" height="12" fill="#c0c0c0" stroke="#a1a1aa" stroke-width="0.5"/>
    <rect x="50" y="61" width="12" height="12" fill="#e4e4e7" stroke="#a1a1aa" stroke-width="0.5"/>
    <rect x="62" y="61" width="12" height="12" fill="#fafafa" stroke="#a1a1aa" stroke-width="0.5"/>
  </g>
  <polygon points="72,18 75,26 84,26 77,31 80,40 72,35 64,40 67,31 60,26 69,26" fill="#38bdf8"/>
  <polygon points="30,70 32,76 38,76 33,80 35,86 30,82 25,86 27,80 22,76 28,76" fill="#60a5fa"/>
</svg>
