<svg xmlns="http://www.w3.org/2000/svg" viewBox="0 0 200 80" width="200" height="80">
  <defs>
    <linearGradient id="lens" x1="0" y1="0" x2="0" y2="1">
      <stop offset="0%" stop-color="#2dd4bf" stop-opacity="0.75"/>
      <stop offset="100%" stop-color="#0f766e" stop-opacity="0.85"/>
    </linearGradient>
  </defs>
  <path d="M20 25 Q30 10 55 12 L85 14 Q95 15 95 30 L95 45 Q95 58 80 58 L40 55 Q20 52 18 38 Z" fill="#FFF100" stroke="#1a1a1a" stroke-width="3"/>
  <path d="M105 30 Q105 15 115 14 L145 12 Q170 10 180 25 L182 38 Q180 52 160 55 L120 58 Q105 58 105 45 Z" fill="#FFF100" stroke="#1a1a1a" stroke-width="3"/>
  <rect x="90" y="28" width="20" height="8" rx="3" fill="#FFF100" stroke="#1a1a1a" stroke-width="2"/>
  <ellipse cx="55" cy="35" rx="28" ry="18" fill="url(#lens)"/>
  <ellipse cx="145" cy="35" rx="28" ry="18" fill="url(#lens)"/>
</svg>
